<?xml version="1.0" encoding="UTF-8" standalone="no"?>
<svg width="100px" height="22px" viewBox="0 0 100 22" version="1.1" xmlns="http://www.w3.org/2000/svg" xmlns:xlink="http://www.w3.org/1999/xlink" xmlns:sketch="http://www.bohemiancoding.com/sketch/ns">
    <!-- Generator: Sketch 3.1 (8751) - http://www.bohemiancoding.com/sketch -->
    <title>Logo</title>
    <desc>Created with Sketch.</desc>
    <defs></defs>
    <g id="Page-1" stroke="none" stroke-width="1" fill="none" fill-rule="evenodd" sketch:type="MSPage">
        <g id="Desktop-4" sketch:type="MSArtboardGroup" transform="translate(-34.000000, -23.000000)" fill="#414B82">
            <g id="NAVIGATION" sketch:type="MSLayerGroup" transform="translate(34.000000, 24.000000)">
                <g id="Logo" sketch:type="MSShapeGroup">
                    <path d="M6.45833333,12.5723529 C6.45833333,12.2782353 6.3,12.0158824 5.98444444,11.7835294 C5.66944444,11.5517647 5.09333333,11.3441176 4.26055556,11.16 C2.94833333,10.8888235 1.95833333,10.4652941 1.29166667,9.89176471 C0.625,9.31882353 0.291111111,8.53529412 0.291111111,7.54294118 C0.291111111,6.49176471 0.708888889,5.6 1.54166667,4.86823529 C2.375,4.13705882 3.50333333,3.77117647 4.92777778,3.77117647 C6.42722222,3.77117647 7.62222222,4.12647059 8.51055556,4.83588235 C9.39944444,5.54529412 9.82388889,6.46176471 9.78166667,7.58764706 L9.76111111,7.65352941 L6.34388889,7.65352941 C6.34388889,7.18294118 6.23111111,6.82647059 6.005,6.58294118 C5.77944444,6.34117647 5.41666667,6.21941176 4.91666667,6.21941176 C4.54888889,6.21941176 4.24,6.32647059 3.99,6.53941176 C3.74,6.75294118 3.61444444,7.02470588 3.61444444,7.35588235 C3.61444444,7.67176471 3.75888889,7.94 4.04722222,8.16058824 C4.335,8.38058824 4.91666667,8.58 5.79222222,8.75647059 C7.16666667,9.04294118 8.18611111,9.47117647 8.84944444,10.0405882 C9.51277778,10.6111765 9.84444444,11.4170588 9.84444444,12.4623529 C9.84444444,13.5358824 9.39444444,14.42 8.49444444,15.1141176 C7.595,15.8094118 6.40666667,16.1576471 4.92777778,16.1576471 C3.39222222,16.1576471 2.17888889,15.7458824 1.28666667,14.9217647 C0.393888889,14.0982353 -0.0311111111,13.1788235 0.01,12.1647059 L0.0305555556,12.0976471 L3.21888889,12.0976471 C3.23277778,12.6647059 3.39388889,13.0723529 3.70333333,13.3217647 C4.01222222,13.5723529 4.45111111,13.6970588 5.02166667,13.6970588 C5.49277778,13.6970588 5.85111111,13.5994118 6.09388889,13.4052941 C6.33722222,13.21 6.45833333,12.9317647 6.45833333,12.5723529" id="Fill-1"></path>
                    <path d="M17.4738889,-0.0223529412 L17.4738889,3.99235294 L19.3794444,3.99235294 L19.3794444,6.57235294 L17.4738889,6.57235294 L17.4738889,12.0429412 C17.4738889,12.4694118 17.555,12.7764706 17.7177778,12.9641176 C17.8816667,13.1511765 18.1011111,13.2458824 18.38,13.2458824 C18.6016667,13.2458824 18.7766667,13.2382353 18.9061111,13.2229412 C19.0344444,13.2076471 19.1994444,13.1788235 19.4,13.1347059 L19.6505556,15.8929412 C19.2611111,15.9876471 18.9111111,16.0558824 18.5983333,16.0958824 C18.2861111,16.1364706 17.9177778,16.1576471 17.4944444,16.1576471 C16.3344444,16.1576471 15.4561111,15.8294118 14.8594444,15.1758824 C14.2611111,14.5205882 13.9627778,13.4835294 13.9627778,12.0647059 L13.9627778,6.57235294 L12.38,6.57235294 L12.38,3.99235294 L13.9627778,3.99235294 L13.9627778,-0.0223529412 L17.4738889,-0.0223529412 L17.4738889,-0.0223529412 Z M13.9627778,-0.0223529412 L17.4738889,-0.0223529412 L13.9627778,-0.0223529412 Z" id="Fill-2"></path>
                    <path d="M29.7616667,15.9147059 C29.6638889,15.7241176 29.5761111,15.51 29.4955556,15.2741176 C29.4166667,15.0394118 29.3483333,14.7964706 29.2933333,14.5470588 C28.9594444,15.0394118 28.5566667,15.43 28.0838889,15.7217647 C27.6127778,16.0123529 27.0388889,16.1576471 26.365,16.1576471 C25.2961111,16.1576471 24.4261111,15.8294118 23.7561111,15.1758824 C23.0861111,14.5205882 22.7516667,13.65 22.7516667,12.5617647 C22.7516667,11.3776471 23.17,10.4641176 24.0061111,9.82058824 C24.8433333,9.17705882 26.115,8.85588235 27.8233333,8.85588235 L29.105,8.85588235 L29.105,8.00647059 C29.105,7.49882353 28.9922222,7.10941176 28.7672222,6.83705882 C28.5411111,6.56470588 28.1922222,6.42882353 27.7205556,6.42882353 C27.3172222,6.42882353 27.0161111,6.53058824 26.8188889,6.73176471 C26.6205556,6.93470588 26.5227778,7.24882353 26.5227778,7.67529412 L23.1155556,7.66411765 L23.0944444,7.59882353 C23.0461111,6.51 23.4727778,5.6 24.3755556,4.86823529 C25.2788889,4.13705882 26.4733333,3.77117647 27.96,3.77117647 C29.3483333,3.77117647 30.4755556,4.13941176 31.34,4.87411765 C32.2044444,5.60882353 32.6366667,6.66058824 32.6366667,8.02823529 L32.6366667,12.5276471 C32.6366667,13.1682353 32.6872222,13.76 32.7883333,14.3035294 C32.8883333,14.8476471 33.0394444,15.3882353 33.2405556,15.9252941 L29.7616667,15.9147059 L29.7616667,15.9147059 Z M27.4388889,13.4982353 C27.7855556,13.4982353 28.1055556,13.4252941 28.3972222,13.2782353 C28.6888889,13.1311765 28.925,12.9405882 29.105,12.7052941 L29.105,10.8405882 L27.8555556,10.8405882 C27.2994444,10.8405882 26.895,10.9835294 26.6416667,11.2705882 C26.3877778,11.5570588 26.2622222,11.9217647 26.2622222,12.3629412 C26.2622222,12.7011765 26.3705556,12.9752941 26.59,13.1841176 C26.8083333,13.3947059 27.0916667,13.4982353 27.4388889,13.4982353 L27.4388889,13.4982353 Z" id="Fill-3"></path>
                    <path d="M39.79,3.99235294 L39.915,5.56882353 C40.2694444,4.99529412 40.7155556,4.55235294 41.2527778,4.23941176 C41.7911111,3.92764706 42.4077778,3.77117647 43.1022222,3.77117647 C43.8038889,3.77117647 44.4077778,3.93235294 44.9144444,4.25647059 C45.4216667,4.58 45.8038889,5.07176471 46.0611111,5.73411765 C46.4083333,5.10941176 46.8538889,4.62529412 47.3994444,4.28411765 C47.945,3.94176471 48.5816667,3.77117647 49.3111111,3.77117647 C50.4083333,3.77117647 51.2716667,4.17058824 51.8994444,4.96764706 C52.5283333,5.76588235 52.8427778,6.99529412 52.8427778,8.65647059 L52.8427778,15.9252941 L49.3111111,15.9252941 L49.3111111,8.65647059 C49.3111111,7.88470588 49.1977778,7.35588235 48.9722222,7.06941176 C48.7472222,6.78235294 48.4083333,6.63882353 47.9572222,6.63882353 C47.6161111,6.63882353 47.3161111,6.70294118 47.0561111,6.83117647 C46.7955556,6.96058824 46.5744444,7.13823529 46.3944444,7.36647059 C46.3944444,7.49176471 46.3977778,7.60058824 46.405,7.69176471 C46.4116667,7.78352941 46.415,7.87411765 46.415,7.96176471 L46.415,15.9252941 L42.8938889,15.9252941 L42.8938889,8.65647059 C42.8938889,7.88470588 42.7827778,7.35588235 42.5605556,7.06941176 C42.3377778,6.78235294 41.9944444,6.63882353 41.5288889,6.63882353 C41.21,6.63882353 40.9205556,6.70294118 40.66,6.83117647 C40.3994444,6.96058824 40.1788889,7.13823529 39.9988889,7.36647059 L39.9988889,15.9252941 L36.4777778,15.9252941 L36.4777778,3.99235294 L39.79,3.99235294" id="Fill-4"></path>
                    <path d="M66.7122222,10.2123529 C66.7122222,12.0064706 66.33,13.4452941 65.5661111,14.53 C64.8022222,15.6147059 63.7255556,16.1576471 62.3361111,16.1576471 C61.7944444,16.1576471 61.3133333,16.0464706 60.8933333,15.8258824 C60.4733333,15.6052941 60.1072222,15.2852941 59.795,14.8658824 L59.795,19.9123529 L56.2738889,19.9123529 L56.2738889,3.99235294 L59.5655556,3.99235294 L59.6905556,5.30411765 C60.01,4.81176471 60.3844444,4.43294118 60.8155556,4.16823529 C61.2461111,3.90411765 61.7466667,3.77117647 62.3155556,3.77117647 C63.7122222,3.77117647 64.7933333,4.34058824 65.5611111,5.48 C66.3283333,6.62058824 66.7122222,8.12058824 66.7122222,9.98058824 L66.7122222,10.2123529 L66.7122222,10.2123529 Z M63.2016667,9.98058824 C63.2016667,8.97352941 63.0627778,8.16470588 62.785,7.55411765 C62.5066667,6.94411765 62.0622222,6.63882353 61.4505556,6.63882353 C61.0544444,6.63882353 60.7205556,6.71588235 60.4461111,6.87 C60.1711111,7.02470588 59.9544444,7.24882353 59.795,7.54294118 L59.795,12.5276471 C59.9616667,12.7852941 60.1822222,12.9764706 60.4561111,13.1017647 C60.7305556,13.2270588 61.0688889,13.2894118 61.4722222,13.2894118 C62.09,13.2894118 62.5333333,13.0188235 62.8005556,12.4782353 C63.0672222,11.9376471 63.2016667,11.1829412 63.2016667,10.2123529 L63.2016667,9.98058824 L63.2016667,9.98058824 Z" id="Fill-5"></path>
                    <path d="M69.5505556,-0.0276470588 L73.0816667,-0.0276470588 L73.0816667,15.9252941 L69.5505556,15.9252941 L69.5505556,-0.0276470588 Z" id="Fill-6"></path>
                    <path d="M83.2666667,15.9147059 C83.1694444,15.7241176 83.0811111,15.51 83.0011111,15.2741176 C82.9216667,15.0394118 82.8538889,14.7964706 82.7983333,14.5470588 C82.4644444,15.0394118 82.0622222,15.43 81.5894444,15.7217647 C81.1177778,16.0123529 80.5444444,16.1576471 79.8711111,16.1576471 C78.8016667,16.1576471 77.9311111,15.8294118 77.2611111,15.1758824 C76.5911111,14.5205882 76.2566667,13.65 76.2566667,12.5617647 C76.2566667,11.3776471 76.675,10.4641176 77.5111111,9.82058824 C78.3483333,9.17705882 79.6205556,8.85588235 81.3294444,8.85588235 L82.6105556,8.85588235 L82.6105556,8.00647059 C82.6105556,7.49882353 82.4972222,7.10941176 82.2722222,6.83705882 C82.0466667,6.56470588 81.6972222,6.42882353 81.2255556,6.42882353 C80.8222222,6.42882353 80.5216667,6.53058824 80.3244444,6.73176471 C80.1261111,6.93470588 80.0277778,7.24882353 80.0277778,7.67529412 L76.6205556,7.66411765 L76.6,7.59882353 C76.5516667,6.51 76.9783333,5.6 77.8811111,4.86823529 C78.7838889,4.13705882 79.9783333,3.77117647 81.4655556,3.77117647 C82.8538889,3.77117647 83.9805556,4.13941176 84.845,4.87411765 C85.7094444,5.60882353 86.1416667,6.66058824 86.1416667,8.02823529 L86.1416667,12.5276471 C86.1416667,13.1682353 86.1922222,13.76 86.2933333,14.3035294 C86.3938889,14.8476471 86.5444444,15.3882353 86.7466667,15.9252941 L83.2666667,15.9147059 L83.2666667,15.9147059 Z M80.9444444,13.4982353 C81.2911111,13.4982353 81.6105556,13.4252941 81.9027778,13.2782353 C82.1938889,13.1311765 82.43,12.9405882 82.6105556,12.7052941 L82.6105556,10.8405882 L81.3605556,10.8405882 C80.8044444,10.8405882 80.4005556,10.9835294 80.1466667,11.2705882 C79.8933333,11.5570588 79.7672222,11.9217647 79.7672222,12.3629412 C79.7672222,12.7011765 79.8755556,12.9752941 80.095,13.1841176 C80.3138889,13.3947059 80.5966667,13.4982353 80.9444444,13.4982353 L80.9444444,13.4982353 Z" id="Fill-7"></path>
                    <path d="M94.0972222,10.6641176 L94.1077778,10.7523529 L94.1705556,10.7523529 L96.0344444,3.99235294 L99.785,3.99235294 L95.4722222,17.1552941 C95.1255556,18.0370588 94.6772222,18.7658824 94.1288889,19.3394118 C93.58,19.9129412 92.7083333,20.1994118 91.5144444,20.1994118 C91.2077778,20.1994118 90.9588889,20.1794118 90.7638889,20.1388235 C90.5694444,20.0982353 90.2638889,20.0235294 89.8472222,19.9141176 L90.2738889,17.2658824 C90.3716667,17.2876471 90.445,17.3041176 90.4933333,17.3152941 C90.5416667,17.3258824 90.6044444,17.3317647 90.6811111,17.3317647 C91.2366667,17.3317647 91.6422222,17.2447059 91.8994444,17.0717647 C92.1566667,16.8970588 92.3472222,16.6364706 92.4722222,16.2888235 L92.5666667,16.0294118 L88.6805556,3.99235294 L92.4194444,3.99235294 L94.0972222,10.6641176" id="Fill-8"></path>
                </g>
            </g>
        </g>
    </g>
</svg>